<?xml version="1.0" encoding="utf-8"?>
<!-- Generator: Adobe Illustrator 21.1.0, SVG Export Plug-In . SVG Version: 6.00 Build 0)  -->
<svg version="1.1" id="Layer_1" xmlns="http://www.w3.org/2000/svg" xmlns:xlink="http://www.w3.org/1999/xlink" x="0px" y="0px"
	 viewBox="0 0 566.9 566.9" style="enable-background:new 0 0 566.9 566.9;" xml:space="preserve">
<style type="text/css">
	.st0{fill:#3953A4;}
	.st1{fill:#FFFFFF;}
	.st2{fill:#EC1D25;}
	.st3{fill-rule:evenodd;clip-rule:evenodd;}
</style>
<rect x="0" y="0" class="st0" width="566.9" height="566.9"/>
<path class="st1" d="M542.7,283.5c0,143.2-116.1,259.2-259.3,259.2c-143.2,0-259.2-116.1-259.2-259.2
	c0-143.2,116.1-259.3,259.2-259.3C426.6,24.2,542.7,140.3,542.7,283.5z"/>
<polygon class="st1" points="65.2,411.8 286.2,28.9 507.2,411.8 "/>
<path d="M65.2,414.1v-2.4l2.1,1.2l-2.1-1.2V414.1h-4.1L286.2,24.2l225.1,389.9H65.2L65.2,414.1z M503.1,409.4L286.2,33.7L69.2,409.4
	H503.1L503.1,409.4z"/>
<path class="st2" d="M158.4,288.7c1.2,31.7,13.9,60.5,34.1,82.3l82.3-82.3H158.4z"/>
<path class="st2" d="M414,279.3c-1.1-31.7-13.9-60.5-34.1-82.3l-82.3,82.3H414z"/>
<path class="st2" d="M192.5,197c-20.2,21.8-32.9,50.5-34.1,82.3h116.4L192.5,197z"/>
<path class="st2" d="M281.5,156.3c-31.8,1.2-60.5,13.9-82.3,34.1l82.3,82.3V156.3z"/>
<path class="st2" d="M373.2,190.3c-21.7-20.2-50.5-32.9-82.3-34.1v116.3L373.2,190.3z"/>
<path class="st2" d="M199.2,377.7c21.7,20.2,50.5,32.9,82.3,34.1V295.4L199.2,377.7z"/>
<path class="st2" d="M297.6,288.7l82.3,82.3c20.2-21.8,32.9-50.5,34.1-82.3H297.6z"/>
<path class="st2" d="M290.9,411.8c31.7-1.2,60.5-13.9,82.3-34.1l-82.3-82.3V411.8z"/>
<path class="st1" d="M414,288.6c0.1-1.6,0.1-3.1,0.1-4.7c0-1.6-0.1-3.2-0.1-4.7H297.6l82.3-82.3c-2.2-2.3-4.4-4.5-6.7-6.7
	l-82.3,82.3V156.1c-1.6-0.1-3.1-0.1-4.7-0.1c-1.6,0-3.2,0.1-4.7,0.1v116.4l-82.3-82.3c-2.3,2.1-4.5,4.4-6.7,6.7l82.3,82.3H158.4
	c-0.1,1.6-0.1,3.1-0.1,4.7c0,1.6,0.1,3.1,0.1,4.7h116.4l-82.3,82.3c2.2,2.3,4.4,4.5,6.7,6.7l82.3-82.3v116.4
	c1.6,0.1,3.1,0.1,4.7,0.1c1.6,0,3.2-0.1,4.7-0.1V295.3l82.3,82.3c2.3-2.1,4.5-4.4,6.7-6.7l-82.3-82.3H414z"/>
<path class="st3" d="M196.9,431.2c0.7,0.1,0.9,0.7,1,1.3c2.2,0.4,2.2,3.1,2.8,5.2c-0.9,0.7-1.3,1.8-1.7,2.9c-1,0.8-2.1,1.5-2.6,2.8
	c0.2,0.8,0.9,1,1.5,1.5c1.2,3.3,4.5,5.1,7.1,7.3c1.2,1,2.1,2.4,3.2,3.3c1.2,1,2.5,1.9,3.6,2.9c1.5,1.4,2.6,3,3.9,4.4
	c1.3,1.4,2.8,2.7,4.2,3.9c2.3,2,4,4,6.8,5.5c0.7,0.3,1.3,0.6,2,1c0.8,0.5,2,1,2.9,1.6c1.3,0.9,2.7,1.8,4.2,2.8
	c1.6,1,3.3,1.5,4.5,3.2c1.7,1.1,4.2,1.4,6,2.5c-0.6,1.1-2.2,1.9-3.8,1.5c-1,0.9-2.4,0.2-3.6,0.4c-0.7,0.1-1,0.7-1.5,0.9
	c-0.7,0.3-1.7,0.5-2.6,0.4c-0.5,0-1-0.3-1.6-0.3c-0.5,0-0.8,0.4-1.3,0.4c-0.8,0.1-1.6-0.5-2.3,0c-2.4-1-4.5-2.4-6.4-4.1
	c-0.3-0.3-0.6-0.6-0.9-0.9c-2.1-1.7-4.5-3.9-6.5-6.3c-2.6-3-5.4-5.3-7.7-8.4c-1.2-1.7-2.2-3-3.8-4.5c-0.6-0.5-1-1.1-1.6-1.7
	c-2-2.2-4.7-3.9-7-6.1c-1.6-1.6-2.5-3.2-4.6-3.9c-1.1,0.5-1.1,1.7-1.6,2.6c-0.6,1.1-1.8,2.1-2.6,3.2c-2.4,3.2-5,6.5-7.7,9.6
	c1.3-0.4,2.5,0.4,3.9,0c2-0.6,4.4-2.3,6.7-3.3c0.8-0.4,1.6-0.9,2.3-1c3-0.5,5.4,0.6,8.3,1.5c0.1,1.4,2.2,0.8,2.2,2.3
	c-1.1,0.3-1.6,1.3-2.6,1.7c-0.1,1.4-1.1,1.9-1.2,3.3c-0.5,0.7-1.3,0.8-2.2,1.3c-0.5,0.3-1.1,0.7-2.2,0.6c-0.5-0.1-0.4,0.4-0.7,0.4
	c-2.6,0-4.5,1.8-7.1,1.5c-0.4,0-0.5-0.3-0.9-0.4c-0.8-0.3-1.7-0.3-2.5-0.6c-2.2-0.9-3.6-2.6-4.6-4.8c0.1-0.8,0.7,0.6,1,0.1
	c-0.2-0.8-0.7-1.2-0.7-2c-4.8,4.7-9,10-14.2,14.2c-1.7,1.4-3.3,3-4.9,4.5c-0.3-0.2-0.2-0.7-0.6-0.7c-2,0.9-2.8,3.1-5.4,3.5
	c-0.8,0.9-1.6,1.8-3.3,1.7c0.6-1.1,1.7-1.6,2.6-2.3c0.2-0.3,0.4-0.6,0.6-1c2.4-2,4.6-4.3,6.7-6.7c0.7-0.8,1.2-1.6,1.9-2.5
	c1.3-1.6,2.9-3.1,4.2-4.6c0.7-0.8,1.3-1.7,2-2.5c6.1-6.8,12.1-14.4,17.1-22.5c-0.3-0.8-0.8-0.9-0.9-1.7c-0.2-1.9,1.8-2.7,3.5-3.2
	c0.4-2,1.9-4.3,1.5-6.8c-0.1-0.4,0-0.8-0.6-0.9c0.3-0.5,1-0.6,1-1.5c0.7-0.2,0.6,0.4,1.2,0.3c0.7-0.1,0.8-0.8,1.6-0.7
	c0.2-0.8,1-1.1,1.6-1.5c0.6-0.1,0.7,0.4,1,0.6C196.1,432.1,196.5,431.7,196.9,431.2z"/>
<path class="st3" d="M218.1,488.5c-0.5,0.1-0.6,0.4-1.1,0.1c-0.5,1-1.5,1.5-2,2.5c-0.3,0.4-0.3,1-0.6,1.5c-0.9,1.3-2.5,2-3.5,3.2
	c-1.7-0.3-1.5,1.3-2.9,1.3c0.6,1.4-0.2,2.3-0.6,3.5c-1-0.6-1.8,0.1-2.8,0.4c-0.9-0.2-1.4-0.6-2.5-0.3c-1-1.3-3-1.6-3.9-2.9
	c-2.9-0.6-7.8-1.6-9.7,0.6c-1.4,0.1-2.6-0.4-3.6,0.1c-0.2,0.3,0.6,0.7,0.4,1.5c-0.7,0.6-1.3,1.8-2.2,2.3c-0.2,0.1-0.7,0.2-1,0.3
	c-1.4,0.7-1.2,1.2-2.9,0.3c-1.2-0.7-2.8-1.9-3.6-3.3c-0.7-1.2-0.9-3.4-1.6-5.2c-0.7-1.8-1.7-3.3-2.3-4.4c-0.1-0.2-0.2-1-0.1-1.6
	c0.1-0.8,0.3-2.5-0.3-3.3c0.1-0.4,0.7-0.4,0.9-0.9c0.4-0.8-0.3-2.7,0.6-3.1c-0.2,3.3,1.7,4.5,4.5,4.9c0.4,0.2,0.5,0.8,1.2,0.9
	c0.7,0.2,0.4-0.7,0.9-0.7c3.2-1.8,6.5-3.8,10.2-5.7c1.2-0.6,2.4-1.5,3.5-1.7c0.4-0.1,0.9,0.1,1.3,0c1.2-0.3,2.2-1.2,3.3-1.9
	c3.2-0.4,7.2-1.1,9.6,0.6c0.4,0,0.9,0,1.3,0c1.8,1.5,4.3,2.4,6.1,3.9c0.8,1.5,1.2,3.4,2.6,4.4C217,487,218.2,487.7,218.1,488.5z
	 M195.9,484.7c-1,0.2-2,0.9-2.6,1.3c-1.2,0.7-2.7,1-3.9,1.6c-0.6,0.2-0.6-0.3-1-0.3c-2,1.5-7.2,2.1-5.2,5.7c0.9,0,1.8,0,2.8,0
	c0.8-1,2.1-0.9,3.6-1.3c0.2,0,0-0.2,0.2-0.3c0.1-0.1,0.4,0,0.6,0c1.6-0.4,2.8-0.3,4.5-0.6c0.8-0.1,1.4-0.5,2.2-0.4
	c0.7,0,1.4,0.5,2,0.4c0.7-1.8,3-2.6,2.3-5.2C200.6,484.8,197.2,484.5,195.9,484.7z"/>
<path class="st3" d="M265.9,440.1c0.1,0,0.2,0,0.3,0c0,0.2,0,0.4,0,0.6c-0.1,0-0.2,0-0.3,0C265.9,440.5,265.9,440.3,265.9,440.1z"/>
<path class="st3" d="M292.7,449.3c-0.1,1.6,0.7,3.1,1,4.7c-0.8,0.5-1.8,0.4-2.6,0.7c-0.9,0.3-1.3,1-2,1.3c-0.9,0.4-1.8,0.2-2.9,0.4
	c-2.3,0.4-4.5,1.7-6.2,2.8c-0.4,0.1-0.4-0.2-0.7-0.1c-1.1,0.6-1.6,1.7-2.5,2.5c-1.2-0.1-1.4,0.9-2.2,1.3c-1.5-0.6-2.5,0.6-4.1,0.2
	c-0.8-0.2-1.3-1.4-2.2-1.9c-1-0.6-1.9-0.6-2.9-1c0.2-0.5,0.9-0.4,1.3-0.7c0.4-0.3-0.4-0.5,0-0.9c3.6-1,7-2.8,10.3-4.5
	c1.1-0.6,2.4-0.8,3.3-1.4c0.9-0.6,1.2-1.7,2-2.3c2.8-0.3,5.3-0.5,8.4-0.3C291.6,449.7,291.8,449.1,292.7,449.3z"/>
<path class="st3" d="M305.5,458.7c0.3,0.4,0,0.9,0,1.3c0.2,0.6,0.7,0.7,0.9,1.3c-1.1,2.3-3.1,3.7-4.4,5.8c-0.3,1.8-1.1,3.1-1.5,4.9
	c-0.7,0.4-1,1.1-1.6,1.6c-0.3,1.6-0.7,2.7-1.3,4.4c-0.5,1.2-0.7,1.9-0.9,3.6c-0.1,0.4-0.3,0.8-0.4,1.3c-0.3,1.3,0,3-0.3,4.5
	c-0.6,3.4,0.3,6.7,1.5,9.4c0.4,0.9,0.9,2,1.3,2.8c0.7,1.1,3.2,3.7,3.9,4.2c0.5,0.4,1.7,0.8,2.5,1.3c0.7,0.5,3,1.9,4.2,1.9
	c0.7,0,2.6-1.1,3.3-1.5c1.1-0.5,2.2-1.2,2.9-1.7c0.7-0.5,1.5-1.2,1.9-1.9c0.7-1,0.6-2.6,1.7-3.3c0,0.3,0,0.6,0,0.9
	c1.4,1.1,1.1,3.7,0.4,5.5c-0.2,0.5,0.4,0.7,0.4,1.2c0.1,0.5-0.2,1-0.1,1.4c0.2,1.1,1.1,1.7,1.7,2.5c-0.3,1.1-0.4,2.3-0.7,3.3
	c-1,0.6-2.2,0.7-3.9,0.9c-0.7,0.1-1.5,0.5-2.2,0.6c-1,0.1-2-0.1-3.1-0.2c-2.5-0.1-3.8-0.1-5.5-1c-0.6-0.3-1.3-1.3-1.7-1.9
	c-0.5,0-0.7-0.5-1.2-0.7c-0.4-0.2-1-0.3-1.3-0.6c-0.4-0.3-1-1.1-1.6-1.7c-1.4-1.4-2-2.5-3-4.5c-0.3-0.5-0.5-0.9-0.7-1.5
	c-0.2-0.4-0.7-0.8-0.9-1.2c-0.2-0.4-0.2-1-0.4-1.5c-0.3-0.6-0.7-1-0.9-1.4c-0.3-0.9-0.2-1.8-0.4-2.8c-0.4-1.5-1.1-3-1.3-4.8
	c-0.4-3.2-0.3-8,0-11.8c0.2-2.4,0.7-4.7,0.9-7c0.1-1.6,0.1-2.9,0.9-4.1c-0.2-2.1,0.4-3.5,0.3-5.5c-1.1,0.2-2.6,0.4-3.8,0.9
	c-1.1,0.4-2.5,0.9-3.8,1.4c-0.4,0.2-0.9,0.5-1.3,0.7c-0.4,0.3-1.1,0.3-1,1c1.1,0.5,2.3,0.1,3.5,0.6c0.3,0.8,1.1,1.2,1.7,1.7
	c-0.2,1,0.5,0.9,0.6,1.6c-0.1,0.4-0.1,0.9-0.7,0.7c0.1,0.3,0.6,0.2,0.4,0.9c-0.3,0.2-0.5,0.6-1.2,0.4c-1.2,0.9-2,2.1-3,3.1
	c-1.1,1-2.1,2-3.5,2.6c-0.3,0.4-0.6,0.8-0.9,1.2c-0.3-0.1-0.3,0.3-0.7,0.1c-0.4,0.6-0.9,1.2-1.3,1.7c2.6-1,6.3-0.7,6.2,2
	c0,1-0.8,1-0.9,2.2c-0.7,0.3-0.8,1.1-1.3,1.6c-3.1,0.6-5.6,1.8-8.1,2.9c0,1.6-0.6,2.8-0.4,4.9c0.2,2.6,1.1,5.7,1.3,8.6
	c0.1,1-0.1,2,0,2.9c0.1,0.9,0.5,1.6,0.3,2.5c-0.1,0.8-1.1,1.5-0.7,2.5c-0.8,0.8-1,2.1-1.5,3.2c-0.8-0.7-1.2-1.8-1.9-2.6
	c-0.7,0-0.8,0.6-1.5,0.6c-0.2-0.7-0.5-1.1-0.6-1.9c-0.9-0.9-1.3-2.3-1.7-3.6c1.9-3.1,1.4-8.9,1.3-13.6c-2.3,0.2-2.8,3.6-4.5,4.9
	c-1.5,0-2.5,0-3.6,0.4c-0.6,0.2-1.2,0.7-1.6,0.7c-1.6,0-1.5-2.1-2.8-3.1c-0.1-1.4,0.2-2.3,0.4-3.3c0.7-0.2,1.1-0.7,2.2-0.6
	c2.3-1.3,5.1-3.3,7.8-5.1c1.1-0.7,3.2-1.2,2.3-3.2c-1-0.1-1.1,0.8-1.5,1.3c-0.7-0.6-1,0.1-1.7,0.3c-1-0.8-1.3-2.3-2.2-3.2
	c0.1-0.3,0.4-0.4,0.3-0.9c-1-1.1-0.9-3.4-1.6-4.8c-1.5,0.7-4.3,0.7-5.2-0.4c-3,0.2-3.2-2.3-5.4-2.9c-0.3-0.7-0.9-1.7-0.4-2.8
	c0.7,0,0.9,0.6,1.5,0.7c2.2,0,4-0.9,6.1-1.6c6.4-2.2,12.8-4.2,18.6-7c2.7-1.3,5.8-2.8,9.2-3.6c1.8-0.4,3.6-0.4,5.5-0.9
	c1.1-0.3,2.1-0.9,3.3-0.9c0.6-1.2,2.3-1.2,3.8-1.5c0.1-0.1,0.3-0.1,0.3-0.3C302.5,457.3,304.1,457.9,305.5,458.7z M282.6,468.9
	c-0.3-0.1-0.2-0.5-0.6-0.6c-0.7,0.8-2.3,0.6-2.8,1.6c0.1,1,0.5,1.8,0.7,2.8c-0.5,0.4-1.1,1.3-0.6,2.2c0.9-0.9,1.6-2.1,2.3-3.2
	c0.9-1.3,2.4-3,2.6-4.2C283.6,467.2,282.9,468.3,282.6,468.9z M269.4,475.3c-1.6,0.7-3,1-4.5,1.7c1,0.1,1.9,1.2,3.1,1.6
	c0.2,0,0.6-0.1,0.9,0c0.2,0.1,0.1,0.2,0.4,0.3c0.9,0.1,1.9-0.1,2.8-0.6c-0.1-1.6,0.5-2.6,0.4-4.2
	C270.9,474.2,270.3,474.8,269.4,475.3z"/>
<path class="st3" d="M292,508.8c-0.5,0.3-1.1,0.3-1.5,0.7c-0.2,0.6,0,0.6,0.2,1.2c-3.7,0.6-3.6-3.4-7-2.8c0-0.8,0.2-1.7-0.9-1.5
	c2.5-2.7-1.1-5.2-2.3-7.1c0-0.6-0.1-1.4,0.4-1.5c0-0.6-0.6-0.4-0.6-1c0.4-0.1,0.3,0.4,0.7,0.3c0.7-0.3,1.1-0.8,1.6-1.3
	c0.4-0.1,0.4,0.3,0.9,0.2c0-0.2,0.2-0.2,0.3-0.4c2.1,1,4,1.8,4.9,3.9c0.1,0.3,0.5,0.5,0.6,0.9c0.2,1,0.5,2.3,0.9,3.5
	C290.9,505.7,291.3,507.2,292,508.8z"/>
<path class="st3" d="M266.4,503.5c-0.6,0.9-2.2,1.8-2.6,3c-0.3,0.7-0.2,1.5-0.7,2c-0.5-0.1-0.7,0.2-1.2,0.1c-0.3,0.5,0,1,0,1.6
	c-1.6,0-2-1.2-2.5-2.3c-0.6-0.7-2.1-1.2-1.5-2.8c0.8-0.5,1.4-0.4,2.5-0.4c0.5,0,0.9-0.3,1.5-0.4c0.6-0.1,1.1,0,1.6-0.1
	C264.6,503.9,265.4,502.9,266.4,503.5z"/>
<path class="st3" d="M272,419.8c0.7-0.6,1.3,0.3,2,0.3c0.5,0,1-0.4,1.5-0.3c0.6,0.1,1.9,0.9,2.6,1.5c0.6,0.4,1.3,1.3,2,2
	c0.7,0.7,1.7,1.4,2,2c0.1,0.3,0.1,0.8,0.3,1.2c0.2,0.5,0.9,1,1,1.3c0.1,0.3-0.1,0.6,0,0.9c0.3,0.6,0.8,1.2,1.2,1.6
	c-0.3,1.7,0.1,3.1-0.4,4.4c-0.2,0.6-0.9,1.1-1.3,1.7c-0.7,1.2-1,2-1.3,3.8c1.8,0,3.5-1.4,5.4-2.2c1.3-0.6,3-0.8,4.5-1.5
	c0.5-0.2,0.8-0.7,1.2-0.7c1.7-0.3,3.3,1.1,5.2,1.3c-0.2,1.1,0.1,2.5,1,2.9c-0.2,1-0.9,1.5-1.5,2c-0.7-0.1-1.2,0-1.5,0.4
	c-0.5-0.1-0.9-0.4-1.6-0.3c-0.8,0.2-1.1,0.8-2.2,0.7c-1,1.2-3.4,2.1-5.2,3.3c-1.2,0.8-2.2,1.7-4.5,1.5c-1.2-0.1-1.9-0.8-3.1-1.3
	c-2.2,1.7-4.7,3.2-5.8,6c-0.2,0.2-0.6,0.3-0.9,0.4c-0.1,0.3,0.7-0.1,0.4,0.4c-0.5,0.2-1,0.3-0.7-0.4c-0.4,0.1-1.1-0.2-1.3,0.1
	c-0.1,0.5,0.6,0.2,0.9,0.3c-0.4,0.3-1.5,0-1.3,0.9c-0.5-0.3-0.2-1.3-0.9-1.5c-0.3,0.1,0.1,0.9-0.6,0.6c-0.6-0.5-1.4-0.9-2.3-0.7
	c-1.5-1.9-2.2-4.6-2.5-7.3c-0.3-4,0.8-6.6,1.9-9.5c0.6-1.6,1.1-3.3,1.6-4.9C269.3,426.7,271.3,423.9,272,419.8z M265,440.3
	c0.2,1.3-0.6,2.5-0.3,3.5c0.6,0.2,0-0.6,0.6-0.4c0,0.8-0.7,1.7,0.1,2c0.5-0.3,0-1.4,0.6-1.6c-0.1,0.9-0.2,1.6-0.6,2.2
	c0.6,0.1-0.1,1.3,0.6,1.3c1-2.4,2-6.2,1.5-9.3c-0.6,0-0.6,0.6-0.9,0.9c-0.1-0.9,0.5-1.1,0-1.6c-0.2,0-0.3,0-0.4,0
	C265.7,438.2,265.8,439.7,265,440.3z"/>
<path class="st3" d="M265.4,442.4C265.1,442.1,265.8,441.6,265.4,442.4L265.4,442.4z"/>
<path class="st3" d="M344.5,452.3c0.1,0.8,0.5,1.6,0.1,2.5c-0.4,0.2-0.9,0.4-1.4,0.4c0.1,0.8,0.5,1.8,0.1,2.6
	c-0.9,0-0.8,0.9-1.7,0.9c-0.3,0.1,0,0.7-0.6,0.6c-2.6-5.4-9.2-6.9-12.2-11.9c0.5-0.1,0.8-0.4,1.3-0.6c0.4-0.2-0.5-0.3-0.3-0.9
	c2.2-0.4,4.1-1.2,6.1-1.7c1.4-0.4,3.2,0.7,4.2,1.2c1.7,0.8,3.8,1.9,5.2,2.9C346.4,449.9,345.5,451.2,344.5,452.3z"/>
<path class="st3" d="M385.8,496.6c3.1,1.5,7.8,1.5,12.2,1.7c0.6-0.1,0.5,0.7,0.9,0.9c6.5,0.4,11.9-1,17.6-0.9
	c-0.4,0.4-0.9,0.7-1.6,0.9c-0.4,0.2-0.5,0.6-0.6,1c-0.9,0.2-1.4,0.9-1.9,1.5c-3.1,1-4.5,3.7-8,4.4c-1.6,1.3-3.6,2-6,2.5
	c-0.8,0.6-1.7,1-2.2,1.9c-1-0.2-1,0.6-1.6,0.9c0,0.3,0,0.7,0,1c-4.9,0.4-9.1-2.4-13.2-3.8c-1.3-0.4-2.7-0.6-3.9-1
	c-2.2-0.8-4.2-2.7-6.4-3.6c-1-0.4-1.8-0.9-2.7-1.4c-0.6-0.3-1.2-0.8-1.8-1c-1.7-0.8-3.6-1-5.8-1.3c-0.6-0.1-1.1-0.4-1.7-0.4
	c-1.5-0.2-2.8,0.3-4.5,0.3c-2.8,0-6.5-1.7-8.9,0.4c-0.4,0-0.8,0-1.2,0c-0.7,0.3-0.8,1.2-1.2,1.9c-1.7-0.6-1.7,1-3.3,0.9
	c-0.3,0.3-0.5,0.9-0.4,1.6c-1.4,0.1-2.3-0.2-3.2-0.6c-0.8-1.4-2-2.2-2.5-3.9c0-0.3-0.5-0.1-0.7-0.1c0.1-1.3,1-1.8,1.3-2.8
	c3.7-1.7,6.5-4.2,11-5.1c0.6-0.6,0.7-1.4,1-2.2c0.3-0.8,1-1.7,1-2.6c0.2-2.5-2.6-4-2.9-6.4c-0.1-0.4-0.4-0.5-0.6-0.7
	c-0.3-2.2-0.6-4.4-0.9-6.7c-1.1,0.4-3.2,1.8-4.6,2.8c-0.5,0.3-1.2,0.6-1.5,0.9c-0.5,0.5-0.7,1.5-1.4,1.6c-0.9,0.1-1.4-0.6-2-1.2
	c-0.4,0-1.1,0.2-0.9-0.4c-1.3-0.1-2.2-0.6-3-1.2c-0.4,0-0.9,0-1.3,0c-0.4-2.1,1.1-2.3,1.6-3.5c3.4-2.4,6.1-5.5,9.9-7.5
	c0.4-0.6,0.9-1.4,1.6-1.7c0.2-0.1,0.5,0.1,0.7,0c0.3-0.1,0.7-0.6,1-0.7c0.4-0.2,0.8-0.4,1.2-0.4c0.3-0.1,0.3-0.5,0.3-0.9
	c0.9-0.1,1.8-0.1,2.3-0.1c1.1,0.8,3.1,0.8,4.5,1.3c0.7,0.2,0.9-0.2,1.3-0.3c0.6,0.5,0.4,1.2,0.7,1.9c0.2,0.4,0.8,0.4,0.9,1.2
	c0.1,0.7-0.3,0.9-0.4,1.5c-0.1,0.4,0,0.9-0.1,1.3c-0.4,1.4-1.6,2.4-2.5,3.2c-0.3,2.1-0.7,4.6-2.2,6c0,0.9,0,1.8-0.1,2.5
	c2.3,1.4,4.5,2.3,6.2,4.4c1.3,1.5,2.6,3.2,3.2,5.5c0.8,0.6,1.8,0.9,2.6,1.5c0.2,0.7,0.1,1.6,0,2.3c1,0.6,2,0.5,3.5,0.6
	c5.6,0.4,9.7,3.1,16,2.3c-0.6-1.6,0.3-3.8-0.7-5.1c-1.1-0.1-1.2-1.3-2-1.7c-0.6,0.1-1.3,0.7-1.9,0.3c-0.9,0.5-1.7,0.9-2.6,1.3
	c-0.2,0.5-0.5,0.9-0.9,1.2c-0.5-0.2-1.1-0.4-1.7-0.6c-0.6-1-2-1.3-3-1.9c0.2-0.3,0.9-0.1,1-0.4c0.3-0.1,0.2-0.6,0.4-0.9
	c1.5-0.8,2.5-2.1,4.4-3.2c1.5-0.8,2.9-1.7,4.7-2.3c1.5-0.6,2.8-0.9,3.8,0c-0.6,0.5-1.1,1.8-0.1,2.5c0.9-0.2,0.4-1.8,1-2.3
	c0-6-1.4-11.7-1.2-17.6c0.1-2.1,0.1-4.6-0.6-6.4c-1.4,0.5-1.7,2.1-2.9,2.8c-0.5,1.1-1.5,1.9-2.3,2.8c-0.4,0.3-0.2,1.1-0.7,1.2
	c-1.4-0.7-2.5-1.7-3.5-2.8c1.1-2.9,4.2-3.8,6-6.1c-0.2-1.2,0.8-1.3,0.9-2.2c0.5,0,0.6,0.3,1.2,0.1c0.9-2.3,4.4-0.6,6.1,0
	c1.7-0.2,2.6,0.5,3.5,1.2c0.2,1.1,1,1.7,1.6,2.5c0.4,1.8,0.2,3.7,0.4,5.5c0.2,1.3,0.6,2.2,0.4,3.3c-0.1,0.8-0.4,1.9-0.2,3.1
	c0.1,0.5,0.5,0.9,0.6,1.5c0.1,0.9-0.1,1.9-0.2,2.9c-0.1,1.3,0.1,2.7,0,3.8c-0.2,1.7-0.7,3.5-0.9,5.2c-0.3,3.3,0,6.3-1.3,8.6
	c-0.7,0.7-1.3,1.4-1.7,2.3c-1-0.6-0.7,0.9-1.6,0.4C386.3,495.6,385.8,495.9,385.8,496.6z"/>
<path class="st3" d="M390.1,422.2c0.7,0.7,1.8,0.9,2.8,1.6c0.3,0.2,0.4,0.6,0.7,0.9c1.4,0.9,4.6,1.6,4.9,3.5c-0.4,0.6-1,0.8-1.4,1.3
	c-0.2,0.7,0,1.5-0.3,2.3c-0.4,1.1-2.2,2.4-3.2,3.3c-1.2,1.1-2.1,2.3-3.2,3.2c-2.4,2.1-5.6,3.1-7.3,5.4c-2-0.8-2.9,1.6-4.1,2.5
	c3.3-1.1,8.3-0.7,9.4-3.9c0.4,0.3,0.8,0.6,1.3,0.7c0.7-0.3,1-1,1.3-1.6c0.8,0.2,1,1,1.6,1.5c0.4,0.2,1.1,0.1,1.6,0.4
	c0.5,0.3,0.8,1.1,1.3,1.3c1,0.5,2.9-0.1,3.2,1.4c-0.4,0.4-1.4,0.4-1.7,0.9c-0.2,1.2-0.2,2.6-0.7,3.5c-1.1,0.6-2.5,0.3-3.6,0.1
	c-2.2-0.3-4,0.6-5.5,1.3c-0.9-0.1-1.1-0.8-2.3-0.6c-0.4-0.5-0.7-1.1-1.3-1.5c-1.9,0.6-4.2,0.9-6.1,1.6c-0.2,1.4-1.5,1.7-1.6,3.2
	c-1-0.7-1,1.1-2.5,0.7c-0.5,1.7-1.5,2.8-2.6,4.2c-1.8,2.4-3.5,4.9-5.7,7c-0.6,1.4,0,3,0.1,4.5c0.7,0.1,1.1-0.6,1.7-0.9
	c1.2-0.6,2.7-1.1,4.1-1.7c1.1-0.5,2.5-1.5,4.2-1.5c0.8,0,1.4,0.7,2.3,0.6c-0.4,0.6-1.4,0.3-1.3,1.5c0,0.8,0.8,0.6,1.2,1.3
	c0,0.7-1.1,0.4-0.7,1.5c-0.4,0.2-0.8,0.4-1,0.7c-1.2,0.1-2.9,1-4.7,1c-0.5,0-0.9-0.2-1.3-0.1c-0.9,0.1-1.9,0.8-2.6,0.7
	c-0.9-0.1-1.2-1.2-1.6-1.7c-0.5,2.6-0.7,5.5-0.6,8.7c1.2-1.8,3-3,5.5-4.1c1.6-0.7,3.3-1.7,4.8-1.9c0.9-0.1,2.3-0.2,3.2,0.3
	c0,0.9-1.1,0.8-0.7,2c-0.1,0.6,0.7,0.3,0.7,0.7c-0.2,1.5-0.8,1.8-2.5,2.5c-1.2,0.5-1.8,0.7-3.3,0.9c-0.7,0.1-1.4,0.6-2.2,0.7
	c-0.4,0.1-0.9-0.1-1.2,0c-1,0.3-1.6,1.1-2.5,1c-0.6-0.5-1.2-1.2-1.9-1.6c-0.8,3.8,2.1,7,0.1,9.3c-0.8-0.3-1.4-1-2.2-1.3
	c-1.2-2.5-2.8-4.6-2.8-7.8c0-1,0-2.2,0.2-3.3c0.1-1.2,0.8-2.5,1.2-3.8c0.1-0.4,0-1,0.1-1.3c0.6-1.4,1.8-2.1,1.9-3.8
	c0-0.6-0.3-1.1-0.1-1.6c-0.1-0.5,0.7-0.2,0.7-0.6c0.4-1.3-0.6-2-0.4-3.3c0.4-3.6,2.8-7,4.4-9.4c-4,0.8-8.2,2.1-11.2,3.9
	c-0.8,0.5-1.5,1.4-2.2,2.2c-0.7-0.5-1.6-0.4-2.2-0.9c-0.7-0.6-0.8-1.9-1.5-2.6c0.6,0.1,0.6-0.5,0.6-1c0.4-0.1,0.7-0.4,0.7-0.9
	c0.1-0.6-0.2-0.9-0.7-1c0.8,0.1,2.1,0.6,2.9-0.4c3.5-0.6,5.9-2.4,9.4-2.9c-1.3-0.9-2.7-3.2-4.6-4.8c-1.2-1-2.7-1.7-3.2-2.9
	c-0.5-1.3-0.6-3.2,0-4.8c0.3-0.8,1-1.1,1.3-2.2c1.2-0.1,2.1-1.4,1.2-2.3c0.9-0.1,0.8,0.8,1.7,0.6c0.3,0.3,0.4,0.7,0.7,1
	c0.7,0.7,1.8,1.1,2.6,1.8c0.5,0.4,1.2,1.1,1.7,1.6c0.4,0.4,0.7,1.1,1.2,1.4c0.9,0.7,2.1,1,2.9,1.7c0,0.2,0.1,0.4,0.3,0.4
	c-0.1,2.4,0.7,3.9,1,6c1.6-0.4,3.1-0.7,4.5-1.3c-0.2-0.5-1-0.5-1.2-1c0-1.8,1.6-2.9,2.2-4.4c0.2-0.4,0.1-1,0.3-1.5
	c0.3-0.7,0.9-1.4,1.3-2.2c0.4-0.8,1-1.7,1.6-2.6c0.7-1.2,1.2-2.5,1.9-3.8c1.3-2.4,3.4-4.5,3.8-7.4c0.2-0.2,0.5-0.2,0.9-0.2
	c0.5-0.9,1.8-1.1,2.3-2c0.4,0.1,0.7,0.2,0.9,0.4C389.7,422.8,389.7,422.3,390.1,422.2z"/>
<path class="st3" d="M104.2,152.1c1.5,1.8,2,4.5,3.7,6.1c0.5,6.8-3.4,11.5-3.7,15.9c3.7,2.5,7.6,0.1,11.2-0.9c3.2-0.9,7.5-1,8-4.2
	c0.3-2.3-3.3-4.5-2.8-6.5c1.4-5.9,10.8-0.3,9.8,5.6c0.8,1.4,3.9,0.5,4.7,1.9c0.2,7.1-6.4,7.3-7.5,13.1c-2.9,1.3-5.6,2.8-9.4,3.3
	c-1.9-0.7-1.7-3.6-2.8-5.1c-5.1-1.2-9.7,0.1-12.2,3.7c-1.9-0.4-2.4-2.2-4.2-2.8c-5.3,0.6-9.5,2.1-13.1,4.2c-2.2,1.3-3.6,4-6.5,4.2
	c-3.3-4.2-2.6-10.3-5.1-15c-1.5-2.8-5.2-5.2-2.8-8.4c4.1,0.9,8.2,1.7,11.2,3.7c0.6,3-0.5,7.2,2.3,8.9c4-0.6,9.9-2.5,10.8-7.5
	c0.5-3,0.9-10.6,0.5-12.2c-1.2-4.5-7-2.9-8.4-6.6c1-3,2.9-4.7,5.1-4.7C95.3,148.8,99.7,153.5,104.2,152.1z"/>
<path class="st3" d="M142.1,189c2.5,1.5,5.9,2.2,5.6,6.5c-3.4,3.9-9,0.9-13.6,0.5c-4-0.4-8.6-0.5-12.6-0.5c-6.1,0-12.6-0.2-18.2,0.5
	c-5.4,0.6-10.1,3.7-16.8,3.3c-0.5,3.8,1.9,4.7,2.8,7c1.8-1.1,3.7-0.1,5.6-0.5c1.1-0.2,2-1.1,3.3-1.4c1.1-0.3,2.3,0.2,3.7,0
	c1.8-0.2,4.3-1.3,6.5-1.9c2.5-0.6,4.7-0.7,6.6-1.4c2.3-0.9,4.1-2.8,5.1-2.8c1.6-0.1,2.8,1.7,5.6,2.8c2.4,1,4.8,0.9,6.5,2.3
	c-0.1-0.1,3.7,5.1,3.7,5.6c0.4,2.8-2.7,7.8-4.2,10.3c-2,3.3-4.8,5.3-6.6,8c0.3,3.2-1.4,4.5-2.3,6.6c-4.2,2.5-8.1-0.1-13.1,0
	c-4.8,0.1-9,3.3-12.6,2.8c-3.8-0.5-8.2-5.7-8.9-10.3c-0.4-2.5,1.6-5.2-0.5-7.5c-7.2,5.5-13.2,12.7-20.6,18.7c-2.1,1.7-5,4.6-8.4,3.3
	c-0.8-3.2,2.7-3.8,4.2-5.1c2.7-2.3,4.2-5.8,7.5-7.5c2.7-5.7,7.1-9.8,9.8-15.4c0-3-3.3-2.6-3.7-5.1c-0.4-2.9,3.4-1.6,3.7-3.7
	c-3.2-2.2-6.3,2.8-10.8,3.3c-2.4,0.2-5.8-0.5-8-1.4c-2-0.8-5.5-3.1-5.1-5.1c2.2-3.6,4.5-0.1,7,0c1.5,0,3.4-1.1,6.1-1.9
	c2-0.6,4.6-0.8,6.6-1.4c2.4-0.8,4.3-1.9,7.9-2.8c5.6-1.4,12.5-2.9,17.8-4.7c1.5-0.5,3.4-0.2,6.1-0.5c2.5-0.2,4.9-1.3,7-1.4
	c2.8-0.1,5.3,0.7,7.5,0.5c2.6-0.2,7.3-1.2,10.3-2.3c1.7-0.7,2.7-2.8,5.6-2.3C140.4,184.2,142,185.9,142.1,189z M114.1,206.8
	c-3.1,1.8-7.5,4.1-12.2,5.1c-3.3,0.7-6.3-0.2-8.4,2.3c-1,5.4,0.4,12,4.2,14c5,0.4,8.9-0.4,12.2-1.9c2.2-6.3,7.8-11.5,7-19.2
	C115.9,206.6,114.4,206.6,114.1,206.8z"/>
<path class="st3" d="M496.6,152.3c1.2,1,2.3,2.1,2.3,4.2c1.5,0.7,3.7,0.6,4.2,2.3c-0.2,3.2-2.9,4-3.7,6.5c-1,4.6,1.6,10.4,2.3,16.8
	c0.4,3.7-0.3,7.6,0,11.7c0.2,3,1.2,5.9,1.4,8.9c0.1,1.7-0.5,3-0.5,4.7c0,2.9,1.3,5.7,1.4,8c0.1,3.4-0.3,8.3-0.9,12.6
	c-0.6,4-2.1,9.7-6.5,8.9c-2.6-0.5-3.3-4.6-4.7-7c-1.7-2.9-3.8-4-3.7-7.5c1.6-2.7,6.7-2,8-5.1c0-9.7-0.4-17.3-1.4-27.1
	c-0.3-2.5-0.5-4.3-0.5-7.5c0-4.1-1.5-8-1.9-12.2c-0.3-3.1,0.8-6.9-0.9-9.8c-6.2,1.3-16.1,1.3-13.6,9.8c3.6,1.2,9-4.1,11.2,0.9
	c-1.2,6.4-12.3,3-13.6,9.4c3,4.1,11-5.8,13.1,0.9c2.5,7.8-10.6,5.4-16.8,7c-7.7-2.9,1.4-17.1,0-25.3c-0.5-3.2-2.4-3.1-3.7-6.6
	c0.9-2.3,4.2-3.7,6.6-3.7c2.1,0,3.5,1.5,5.6,1.9C486.3,156,490.8,152.5,496.6,152.3z"/>
<path class="st3" d="M458.2,155.1c0.8,3,2.4,5.3,2.8,8.4c0.8,6.1-2.2,12.2-2.3,17.8c-0.1,3,2.1,5.6-0.5,7.5
	c-3.2,0.7-2.9-2.1-5.2-2.3c-3.7,3.9-11.9,3.4-17.8,5.1c-3.1,2-3.6,6.7-4.7,10.8c-1.1,4-2.6,8.1-3.3,12.2c-0.2,1.3,0.2,2.9,0,4.2
	c-0.4,2.8-2.4,5-2.8,7.5c-0.6,3.7,1.4,8.2-2.3,10.3c-9.6-3.2-6.5-12.1-2.8-20.6c1.6-3.6,2.5-7.5,3.7-11.2c1.2-3.6,3.1-7.2,4.2-10.8
	c1.4-4.3,1.5-8.5,2.3-12.6c0.7-3.3,1.9-7.3,1.4-12.2c-1.4-3.9-5.7-4.9-6.5-9.4c2.1-2.9,7.7-2.7,10.3-0.5
	C444.9,160.4,449.2,151.9,458.2,155.1z M438.1,173.8c4.9-1.1,7-4.8,14-3.7c1.3-2.5,1.2-6.1-0.9-7.5
	C444.9,163.9,435.5,166.6,438.1,173.8z M443.3,179.4c-1.1,0.2-2.8-0.4-3.7,0c-2.8,1-5.4,3.7-2.8,6.6c5.1-1.1,8.7-5.5,15-2.8
	c0.7-1.5,0.7-5.6,0-7C449.2,175.8,446.7,178.8,443.3,179.4z"/>
<path class="st3" d="M474.1,218.2c-2.8,0.2-3.5-1.8-5.6-2.3c-7.3-0.3-16.4,4.3-19.6-2.3c-0.4-4.8,0.5-8.3,1.9-11.2
	c-2.6-3.2-6.5-9.9,0.9-10.3c2.6-0.1,4.9,2.3,6.6,2.3c3.3,0.1,6.2-3.4,9.8-3.3c5.4,0.1,6,5.4,8.4,8
	C476.3,206,476.9,213.8,474.1,218.2z M457.3,198.1c0.1,1.3-0.3,3.1,0.5,3.7c3.9,1.6,7.3-1.1,9.8-2.3
	C467,195.7,460,197.4,457.3,198.1z M458.2,206.5c-1.1,1.1-2.9,1.5-2.3,4.2c3.9,1.8,12.2-1.1,12.2-5.6
	C464.6,205.5,462.3,208.2,458.2,206.5z"/>
</svg>
